HIERARCHY
ROOT Hips
{
	OFFSET -80.168388 91.772041 -268.984589
	CHANNELS 6 Xposition Yposition Zposition Zrotation Yrotation Xrotation 
	JOINT RightUpLeg
	{
		OFFSET 0.103457 1.857818 10.548502
		CHANNELS 3 Xrotation Yrotation Zrotation
		JOINT RightLeg
		{
			OFFSET 43.500000 -0.000011 -0.000004
			CHANNELS 3 Xrotation Yrotation Zrotation
			JOINT RightFoot
			{
				OFFSET 42.372192 -0.000004 -0.000008
				CHANNELS 3 Xrotation Yrotation Zrotation
				JOINT RightToe
				{
					OFFSET 17.300014 0.000006 0.000001
					CHANNELS 3 Xrotation Yrotation Zrotation
					End Site
					{
						OFFSET 0.000000 0.000000 0.000000
					}
				}
			}
		}
	}
	JOINT LeftUpLeg
	{
		OFFSET 0.103457 1.857817 -10.548505
		CHANNELS 3 Xrotation Yrotation Zrotation
		JOINT LeftLeg
		{
			OFFSET 43.500046 -0.000004 0.000011
			CHANNELS 3 Xrotation Yrotation Zrotation
			JOINT LeftFoot
			{
				OFFSET 42.372257 0.000000 0.000015
				CHANNELS 3 Xrotation Yrotation Zrotation
				JOINT LeftToe
				{
					OFFSET 17.300003 -0.000000 0.000002
					CHANNELS 3 Xrotation Yrotation Zrotation
					End Site
					{
						OFFSET 0.000000 0.000000 0.000000
					}
				}
			}
		}
	}
	JOINT Spine
	{
		OFFSET 6.901961 -2.603721 -0.000001
		CHANNELS 3 Xrotation Yrotation Zrotation
		JOINT Spine1
		{
			OFFSET 12.588108 0.000002 -0.000001
			CHANNELS 3 Xrotation Yrotation Zrotation
			JOINT Spine2
			{
				OFFSET 12.343199 -0.000020 0.000006
				CHANNELS 3 Xrotation Yrotation Zrotation
				JOINT Neck
				{
					OFFSET 25.832905 0.000017 0.000000
					CHANNELS 3 Xrotation Yrotation Zrotation
					JOINT Head
					{
						OFFSET 11.766604 -0.000006 0.000004
						CHANNELS 3 Xrotation Yrotation Zrotation
						End Site
						{
							OFFSET 0.000000 0.000000 0.000000
						}
					}
				}
				JOINT RightShoulder
				{
					OFFSET 19.745903 -1.480350 6.000100
					CHANNELS 3 Xrotation Yrotation Zrotation
					JOINT RightArm
					{
						OFFSET 11.284130 -0.000016 -0.000016
						CHANNELS 3 Xrotation Yrotation Zrotation
						JOINT RightForeArm
						{
							OFFSET 33.000046 0.000004 0.000031
							CHANNELS 3 Xrotation Yrotation Zrotation
							JOINT RightHand
							{
								OFFSET 25.199999 0.000027 0.000001
								CHANNELS 3 Xrotation Yrotation Zrotation
								End Site
								{
									OFFSET 0.000000 0.000000 0.000000
								}
							}
						}
					}
				}
				JOINT LeftShoulder
				{
					OFFSET 19.746094 -1.480375 -6.000080
					CHANNELS 3 Xrotation Yrotation Zrotation
					JOINT LeftArm
					{
						OFFSET 11.284131 -0.000016 -0.000017
						CHANNELS 3 Xrotation Yrotation Zrotation
						JOINT LeftForeArm
						{
							OFFSET 33.000095 0.000009 0.000020
							CHANNELS 3 Xrotation Yrotation Zrotation
							JOINT LeftHand
							{
								OFFSET 25.199789 0.000132 0.000423
								CHANNELS 3 Xrotation Yrotation Zrotation
								End Site
								{
									OFFSET 0.000000 0.000000 0.000000
								}
							}
						}
					}
				}
			}
		}
	}
}
MOTION
Frames: 14
Frame Time: 0.033333
-13.914510 88.038582 499.957611 92.623471 -3.988400 -80.746408 169.480776 -21.644897 150.120004 -43.562141 -1.777932 -8.676987 84.649369 3.982673 -10.851551 21.454560 0.003105 0.000017 172.121286 16.266915 -157.126781 -18.429788 -0.536244 13.310579 59.903300 -3.130378 15.657490 21.454555 -0.003101 -0.000000 8.684972 0.868108 0.726993 7.369005 1.688301 1.507830 7.050882 1.697231 1.497600 17.891196 0.283450 5.177157 -13.707080 -15.468247 10.633030 -146.677602 -73.874732 -35.568207 7.037994 46.477904 -8.192996 -113.203801 4.006652 3.097895 -7.326174 9.446792 -56.609861 -163.097910 81.602906 18.712099 -0.274912 -45.996632 26.153213 -102.505403 1.331978 -2.953727 6.637882 19.339257 -10.757063 
-16.526409 87.216164 500.662415 92.482066 -3.935616 -78.712951 166.091418 -20.455100 153.021454 -48.414631 -1.978318 -8.900362 86.307083 4.511804 -9.541903 21.454557 0.003110 0.000017 172.833798 17.915805 -156.689498 -17.694377 -1.227665 14.102955 58.132724 -2.696551 17.414086 21.454555 -0.003095 -0.000000 8.683009 0.680991 0.542807 7.360174 1.326192 1.127801 7.042061 1.332842 1.119764 18.111819 2.390574 6.859356 -14.248602 -17.262666 13.128938 -150.038110 -73.675721 -32.134192 5.630209 48.322219 -8.030590 -110.555102 3.659197 3.007381 -5.083172 9.352349 -56.767423 -167.036074 82.136481 14.720506 -8.838425 -40.689045 33.820272 -93.121406 2.490763 -2.617952 1.787029 18.241552 -13.523498 
-19.220690 86.437683 501.242798 92.263452 -4.027917 -76.795751 164.084025 -18.579303 155.339894 -51.552386 -2.142110 -8.879638 88.682486 4.831714 -8.495869 21.454560 0.003111 0.000018 173.526092 19.438290 -157.108298 -17.540020 -1.882837 15.141083 58.199564 -3.554463 17.265666 21.454551 -0.003088 -0.000000 8.667489 0.539751 0.473864 7.326945 1.048519 0.980929 7.008839 1.054288 0.974569 18.234956 3.530954 8.119280 -14.168812 -18.658509 14.925425 -152.873909 -73.386858 -29.236611 2.393718 49.758700 -7.961887 -107.356012 3.131622 2.903822 -2.636038 8.914991 -56.867674 -173.724455 83.333970 7.958650 -13.572546 -36.138934 34.700909 -85.683104 5.532858 -2.501523 1.603924 10.268015 -15.090683 
-21.864759 85.944771 501.732605 91.850574 -4.250914 -74.511777 163.357320 -15.671295 157.277523 -52.526204 -2.018724 -9.301323 91.551828 5.443861 -7.379083 21.454558 0.003107 0.000018 173.917462 20.845001 -158.496780 -19.099393 -2.923692 16.524225 62.153355 -4.851164 18.013043 21.454555 -0.003082 0.000000 8.689201 0.427431 0.536663 7.369683 0.819936 1.099398 7.051609 0.826418 1.094426 18.103200 3.987566 8.692092 -13.293379 -19.419317 15.617849 -155.646009 -72.914353 -26.404784 -3.420317 50.729803 -8.224016 -103.111889 2.334232 2.771090 -0.692127 8.330288 -57.526804 177.772038 84.843947 -0.601389 -14.737629 -34.041967 32.478246 -81.832298 7.483271 -2.469506 3.481941 3.030126 -14.826293 
-24.226740 85.718979 502.154510 91.228610 -4.437570 -71.197038 162.877172 -11.931201 160.541657 -52.389392 -1.865391 -10.152888 93.533375 6.230925 -6.381766 21.454558 0.003109 0.000018 173.677818 21.697301 -161.059740 -22.709954 -4.123675 17.920485 69.625821 -7.849444 15.173774 21.454553 -0.003092 0.000002 8.775973 0.285737 0.611321 7.542084 0.531140 1.239915 7.224039 0.538492 1.236678 17.681039 4.653804 8.684006 -12.064437 -19.796238 15.504441 -159.818504 -72.386242 -22.130105 -10.859801 51.139791 -8.996905 -97.996904 1.335794 2.611849 0.729333 8.010909 -58.780567 175.190445 85.564293 -3.185551 -13.981229 -34.122635 29.832364 -81.430601 7.664225 -2.464703 4.618418 1.333234 -14.659399 
-26.099131 85.702164 502.489990 90.454729 -4.388311 -66.856665 162.335292 -7.860004 165.161214 -51.765806 -1.842155 -11.204346 94.184969 7.042594 -5.587411 21.454558 0.003107 0.000017 172.486865 21.748391 -165.993623 -28.414786 -4.744573 18.208588 77.229755 -10.477841 8.622198 21.454551 -0.003094 -0.000001 8.929458 0.057180 0.543207 7.846452 0.077501 1.089011 7.528417 0.083940 1.088522 17.080271 6.159668 8.677657 -11.062560 -20.544980 15.576108 -166.065982 -71.985358 -15.712107 -17.794898 51.306311 -10.180490 -92.642623 0.317970 2.442805 1.842295 8.164859 -59.774346 -176.594719 84.870271 5.076670 -13.496762 -35.404791 28.605630 -82.457916 7.145296 -2.470573 4.819906 5.415102 -13.804794 
-27.620890 86.047348 502.776398 90.019311 -4.252063 -62.334813 162.376396 -4.544101 169.386355 -50.217764 -1.893816 -11.750692 94.051684 7.508149 -4.500726 21.454560 0.003106 0.000018 170.321040 19.838696 -173.901247 -36.065117 -3.846244 14.287646 79.533421 -8.514475 5.784863 21.454551 -0.003086 -0.000002 9.146373 -0.155969 0.280693 8.279160 -0.331547 0.549516 7.961070 -0.328359 0.551497 16.489806 8.162676 9.412276 -10.424343 -22.138837 16.769040 -172.834713 -71.522066 -8.748111 -23.316497 51.517002 -10.391900 -87.541906 -1.921753 2.371937 2.486433 8.367530 -60.179492 -170.510905 83.198848 11.205422 -14.438583 -37.180152 29.936043 -83.073685 6.833688 -2.478185 4.673767 11.539564 -11.889454 
-28.894279 86.516281 502.968597 89.365601 -3.802558 -58.439877 163.169927 -1.778905 172.047807 -47.837620 -1.979061 -11.653586 93.705114 7.562473 -3.125168 21.454558 0.003107 0.000017 166.928116 16.554587 176.912309 -44.346707 -1.450556 8.703470 78.803417 -4.716395 5.445689 21.454550 -0.003098 -0.000000 9.402767 -0.462208 -0.187453 8.794629 -0.908786 -0.409490 8.476476 -0.911369 -0.403999 16.229962 9.804290 11.190241 -10.149186 -24.188512 19.229388 -177.751397 -70.798544 -3.678501 -27.439102 51.720395 -10.637504 -83.015403 -4.037236 2.320110 2.616785 8.255477 -60.689899 -169.303478 81.748977 12.425198 -16.413465 -38.853856 32.915412 -83.195133 6.787774 -2.480260 4.596462 15.197948 -10.809867 
-30.254280 87.251099 503.093109 88.909863 -3.232491 -55.156786 164.757359 0.438604 174.221282 -44.264919 -2.414738 -11.399686 92.993722 7.564189 -1.497439 21.454557 0.003109 0.000018 163.015415 12.119514 170.052750 -51.587729 0.850374 3.653316 77.649149 -1.391426 4.528321 21.454558 -0.003095 0.000003 9.641469 -0.729403 -0.790682 9.280734 -1.392996 -1.637386 8.962684 -1.402998 -1.628953 16.491727 10.744007 13.620046 -10.363472 -26.034791 22.356683 179.551398 -70.101435 -0.887779 -30.519003 52.068298 -11.043896 -79.242817 -5.596816 2.264865 2.387659 7.804619 -61.814243 -168.898079 81.160597 12.836134 -18.362255 -40.331827 35.010525 -83.614022 6.561563 -2.482752 4.802922 16.199464 -10.384346 
-31.802719 88.250488 503.168488 89.115561 -2.782160 -52.153098 166.899825 1.879899 176.868800 -39.556702 -3.273884 -11.287237 91.876337 7.737147 0.303936 21.454557 0.003115 0.000018 159.214455 7.008190 166.862573 -56.419367 1.917483 0.390380 77.138927 1.247264 5.712253 21.454557 -0.003086 -0.000001 9.818546 -0.840438 -1.408815 9.644841 -1.560476 -2.882996 9.327049 -1.577988 -2.873529 17.035941 11.366670 16.024927 -10.988830 -27.508317 25.426948 177.781478 -69.831075 0.942430 -32.898101 52.923212 -11.703200 -76.277073 -6.718670 2.215957 1.576302 7.403432 -62.935474 -167.056482 81.240135 14.702923 -19.541438 -41.875938 34.997794 -84.952431 5.847920 -2.491479 5.476687 17.442428 -8.658866 
-33.494541 89.248894 503.219086 89.865400 -2.379976 -49.447619 169.168841 2.606402 179.035924 -34.381526 -4.020199 -10.952494 90.585753 7.821846 2.204966 21.454555 0.003112 0.000018 155.132898 1.906905 166.131333 -58.446851 2.177977 -0.313558 75.188280 2.127338 6.689556 21.454551 -0.003091 0.000000 9.925659 -0.836277 -1.919732 9.865039 -1.505745 -3.904044 9.547623 -1.529416 -3.894900 17.433602 12.062484 17.972606 -11.674754 -28.738117 27.990510 176.104407 -69.892083 2.670012 -34.975210 54.241893 -12.939709 -74.075696 -7.413789 2.171301 -0.007108 7.253100 -63.297323 -164.420084 81.415855 17.374003 -19.860266 -43.620532 34.262807 -87.295070 4.640447 -2.510103 6.407538 19.577484 -6.042219 
-35.281368 89.921806 503.296387 90.680296 -1.845261 -47.248868 171.191124 3.086597 179.657662 -29.719137 -4.409990 -10.030231 89.498564 7.535518 4.128027 21.454555 0.003106 0.000017 151.221686 -2.444193 166.338657 -58.060330 1.931246 0.227799 74.275138 1.941946 7.201655 21.454545 -0.003093 -0.000000 9.989080 -0.820693 -2.274768 9.995207 -1.441710 -4.612227 9.678123 -1.469643 -4.603466 17.472204 12.744201 19.361744 -12.209275 -29.681738 29.881876 174.679315 -69.895361 4.138794 -37.071705 55.550202 -14.678208 -72.517061 -7.610281 2.119940 -1.927442 7.185081 -63.171955 -162.705925 81.346829 19.111919 -19.642448 -45.331283 34.498835 -90.155649 3.090914 -2.528265 7.227729 21.283976 -3.833514 
-37.204811 90.344307 503.382812 91.504024 -1.497333 -45.374832 173.264373 3.163496 179.703616 -25.499043 -5.180900 -8.849210 88.593830 7.138546 6.204156 21.454560 0.003113 0.000017 147.857299 -6.053413 166.690056 -54.983214 1.444099 0.368576 72.839384 1.915182 7.123248 21.454551 -0.003091 0.000001 10.076888 -0.736352 -2.519579 10.169382 -1.248274 -5.094365 9.852583 -1.279114 -5.086770 17.209527 13.182543 20.255751 -12.655670 -30.249648 31.146820 173.816116 -69.815967 5.030382 -39.393703 56.551709 -16.404195 -71.419456 -7.490072 2.066335 -3.662975 7.016917 -63.303498 -162.039285 81.114029 19.789894 -19.473021 -46.620815 35.239777 -93.050543 2.126870 -2.589386 8.050630 22.261910 -1.857188 
-39.276581 90.465736 503.426788 92.116221 -1.418027 -43.355145 175.438955 3.194199 -179.462852 -21.959306 -6.329096 -8.000089 88.077502 6.962866 8.188274 21.454562 0.003113 0.000018 145.803256 -8.770100 166.390867 -49.423754 1.366920 -0.028679 71.889817 2.132059 6.745001 21.454550 -0.003093 0.000001 10.232329 -0.563426 -2.772603 10.473529 -0.873391 -5.584909 10.157025 -0.907177 -5.579571 16.791115 13.450829 20.744055 -13.051903 -30.575168 31.918809 173.219444 -69.917628 5.642459 -41.941012 57.275808 -17.570605 -70.571570 -7.446921 2.028633 -5.229878 6.749401 -64.053931 -161.642219 80.910530 20.194849 -19.515235 -47.307646 36.136192 -95.948558 1.665617 -2.686069 9.046676 22.963692 0.186574 
